<svg xmlns="http://www.w3.org/2000/svg" width="1200" height="760"><style>text{font-family:Arial;fill:#172033}.z{fill:#f7fafc;stroke:#36506a;stroke-width:2;rx:18}.b{fill:white;stroke:#557;stroke-width:2;rx:10}.h{font-size:27px;font-weight:700}.t{font-size:21px;font-weight:700}.s{font-size:16px}</style><text x="40" y="45" class="h">3-Tier Application Architecture — AWS Lab</text><rect x="30" y="75" width="1140" height="640" class="z"/><rect x="70" y="120" width="310" height="500" class="z"/><text x="95" y="160" class="t">Public tier · 2 AZs</text><text x="95" y="190" class="s">10.0.1.0/24 · 10.0.2.0/24</text><rect x="100" y="235" width="250" height="105" class="b"/><text x="120" y="275" class="t">Application Load Balancer</text><text x="120" y="305" class="s">fin-lab-alb · HTTP/80</text><rect x="420" y="120" width="360" height="500" class="z"/><text x="445" y="160" class="t">Private application tier</text><text x="445" y="190" class="s">10.0.11.0/24 · 10.0.12.0/24</text><rect x="450" y="235" width="300" height="145" class="b"/><text x="470" y="275" class="t">FIN-LAB-APP-Private</text><text x="470" y="305" class="s">Python web server :8080</text><text x="470" y="335" class="s">No public IP · no key pair</text><text x="470" y="365" class="s">IMDSv2 · SSM role</text><rect x="450" y="415" width="300" height="130" class="b"/><text x="470" y="455" class="t">Private AWS access</text><text x="470" y="485" class="s">SSM / Secrets Manager / S3</text><text x="470" y="515" class="s">via VPC endpoints</text><rect x="820" y="120" width="300" height="500" class="z"/><text x="845" y="160" class="t">Private database tier</text><text x="845" y="190" class="s">10.0.21.0/24 · 10.0.22.0/24</text><rect x="850" y="235" width="240" height="145" class="b"/><text x="870" y="275" class="t">RDS MySQL</text><text x="870" y="305" class="s">fin-lab-db :3306</text><text x="870" y="335" class="s">Encrypted · not public</text><text x="870" y="365" class="s">IAM DB auth</text><path d="M350 287 H445" stroke="#1f5faa" stroke-width="4"/><path d="M750 287 H845" stroke="#1f5faa" stroke-width="4"/><text x="375" y="270" class="s">HTTP/8080</text><text x="785" y="270" class="s">MySQL/3306</text><text x="430" y="675" class="s">Security groups reference security groups rather than fixed IPs; no SSH/22 path.</text></svg>