<svg xmlns="http://www.w3.org/2000/svg" width="1200" height="360" viewBox="0 0 1200 360">
<style>text{font-family:Arial,sans-serif;fill:#111}.box{fill:#fff;stroke:#333;stroke-width:2;rx:10}.arrow{stroke:#333;stroke-width:2;fill:none;marker-end:url(#a)}.title{font-size:24px;font-weight:700}.head{font-size:18px;font-weight:700}.small{font-size:15px}</style>
<defs><marker id="a" markerWidth="10" markerHeight="10" refX="8" refY="3" orient="auto"><path d="M0,0 L9,3 L0,6 z" fill="#333"/></marker></defs>
<text x="35" y="40" class="title">FIN-LAB — Automated Security Group Exposure Detection</text>
<rect x="35" y="105" width="190" height="100" class="box"/><text x="65" y="140" class="head">EC2 API call</text><text x="55" y="170" class="small">AuthorizeSecurityGroup</text><text x="90" y="190" class="small">Ingress</text>
<rect x="300" y="105" width="190" height="100" class="box"/><text x="350" y="140" class="head">CloudTrail</text><text x="335" y="170" class="small">fin-lab-trail</text><text x="330" y="190" class="small">S3 log archive</text>
<rect x="565" y="105" width="210" height="100" class="box"/><text x="600" y="140" class="head">EventBridge</text><text x="588" y="170" class="small">fin-lab-detect-open-sg</text><text x="610" y="190" class="small">API event match</text>
<rect x="850" y="105" width="150" height="100" class="box"/><text x="888" y="140" class="head">Lambda</text><text x="875" y="170" class="small">FIN-LAB-</text><text x="885" y="190" class="small">Lambda</text>
<rect x="1035" y="105" width="130" height="100" class="box"/><text x="1055" y="140" class="head">Finding</text><text x="1048" y="170" class="small">HIGH</text><text x="1045" y="190" class="small">CloudWatch</text>
<path d="M225 155 H295" class="arrow"/><path d="M490 155 H560" class="arrow"/><path d="M775 155 H845" class="arrow"/><path d="M1000 155 H1030" class="arrow"/>
<text x="70" y="270" class="small">Response: triage → contain unauthorized ingress → preserve CloudTrail → escalate suspicious actor activity</text>
</svg>